<svg xmlns="http://www.w3.org/2000/svg" xmlns:xlink="http://www.w3.org/1999/xlink" version="1.1" width="256" height="256" viewBox="0 0 256 256" xml:space="preserve">
<desc>Created with Fabric.js 1.7.22</desc>
<defs>
</defs>
<g transform="translate(128 128) scale(0.72 0.72)" style="">
	<g style="stroke: none; stroke-width: 0; stroke-dasharray: none; stroke-linecap: butt; stroke-linejoin: miter; stroke-miterlimit: 10; fill: none; fill-rule: nonzero; opacity: 1;" transform="translate(-175.05 -175.05000000000004) scale(3.89 3.89)" >
	<path d="M 84.996 35.402 c 0.009 -0.221 0.013 -0.44 0.013 -0.656 c 0 -1.214 -0.122 -2.428 -0.364 -3.608 c -1.696 -8.291 -9.078 -14.308 -17.552 -14.308 c -5.975 0 -11.429 2.919 -14.746 7.758 c -2.643 -1.874 -5.792 -2.885 -9.083 -2.885 c -5.371 0 -10.275 2.699 -13.167 7.131 c -1.471 -0.342 -2.994 -0.528 -4.551 -0.528 c -10.986 0 -19.924 8.938 -19.924 19.924 c 0 0.284 0.007 0.573 0.02 0.866 C 2.132 51.56 0 55.602 0 59.93 c 0 7.301 5.94 13.24 13.241 13.24 h 48.154 c 7.301 0 13.24 -5.939 13.24 -13.24 c 0 -0.955 -0.109 -1.897 -0.31 -2.813 h 3.694 C 84.625 57.117 90 51.742 90 45.135 C 90 41.26 88.111 37.638 84.996 35.402 z M 61.395 69.17 H 13.241 C 8.146 69.17 4 65.024 4 59.93 c 0 -3.323 1.804 -6.406 4.708 -8.047 c 0.695 -0.392 1.09 -1.159 1.005 -1.953 c -0.062 -0.581 -0.093 -1.153 -0.093 -1.7 c 0 -8.781 7.144 -15.924 15.924 -15.924 c 6.05 0 11.5 3.372 14.226 8.801 c 0.287 0.57 0.828 0.97 1.458 1.075 c 0.626 0.105 1.271 -0.097 1.728 -0.542 c 2.539 -2.48 5.885 -3.847 9.424 -3.847 c 7.295 0 13.212 5.716 13.469 13.012 c 0.022 0.626 0.336 1.205 0.849 1.565 c 2.466 1.734 3.938 4.561 3.938 7.56 C 70.635 65.024 66.489 69.17 61.395 69.17 z M 78.019 53.117 h -5.288 c -0.774 -1.286 -1.762 -2.448 -2.945 -3.419 c -0.802 -8.995 -8.271 -15.906 -17.406 -15.906 c -3.741 0 -7.317 1.177 -10.293 3.354 c -2.035 -3.051 -4.828 -5.431 -8.056 -6.95 c 2.201 -2.813 5.572 -4.494 9.232 -4.494 c 3.083 0 6 1.19 8.212 3.352 c 0.456 0.446 1.1 0.644 1.728 0.542 c 0.63 -0.105 1.171 -0.505 1.457 -1.075 c 2.382 -4.744 7.146 -7.691 12.433 -7.691 c 6.582 0 12.315 4.672 13.634 11.11 c 0.188 0.917 0.282 1.861 0.282 2.807 c 0 0.479 -0.027 0.979 -0.081 1.485 c -0.085 0.793 0.31 1.562 1.005 1.954 c 2.509 1.417 4.067 4.08 4.067 6.95 C 86 49.536 82.42 53.117 78.019 53.117 z" style="stroke: none; stroke-width: 1; stroke-dasharray: none; stroke-linecap: butt; stroke-linejoin: miter; stroke-miterlimit: 10; fill: rgb(0,0,0); fill-rule: nonzero; opacity: 1;" transform=" matrix(1 0 0 1 0 0) " stroke-linecap="round" />
</g>
</g>
</svg>